<mxfile host="app.diagrams.net" modified="2023-10-25T03:27:57.817Z" agent="Mozilla/5.0 (Macintosh; Intel Mac OS X 10_15_7) AppleWebKit/537.36 (KHTML, like Gecko) Chrome/117.0.0.0 Safari/537.36" etag="zqZQV4hXhix9pImm8dM3" version="22.0.7" type="google">
  <diagram name="Page-1" id="8yMYM5omladxVR3KcZZl">
    <mxGraphModel grid="1" page="1" gridSize="10" guides="1" tooltips="1" connect="1" arrows="1" fold="1" pageScale="1" pageWidth="850" pageHeight="1100" math="0" shadow="0">
      <root>
        <mxCell id="0" />
        <mxCell id="1" parent="0" />
        <mxCell id="6ksjwFMR4yL9y_moFflf-1" value="" style="shape=folder;fontStyle=1;spacingTop=10;tabWidth=90;tabHeight=20;tabPosition=left;html=1;whiteSpace=wrap;fillColor=#f8cecc;strokeColor=#b85450;" vertex="1" parent="1">
          <mxGeometry x="-410" y="-900" width="1740" height="890" as="geometry" />
        </mxCell>
        <mxCell id="6ksjwFMR4yL9y_moFflf-2" value="&lt;b&gt;&lt;font style=&quot;font-size: 20px;&quot;&gt;Vista&lt;/font&gt;&lt;/b&gt;" style="text;html=1;strokeColor=#b85450;fillColor=#f8cecc;align=center;verticalAlign=middle;whiteSpace=wrap;rounded=0;" vertex="1" parent="1">
          <mxGeometry x="-410" y="-910" width="100" height="30" as="geometry" />
        </mxCell>
        <mxCell id="6ksjwFMR4yL9y_moFflf-5" value="" style="shape=folder;fontStyle=1;spacingTop=10;tabWidth=50;tabHeight=20;tabPosition=left;html=1;whiteSpace=wrap;fillColor=#dae8fc;strokeColor=#6c8ebf;" vertex="1" parent="1">
          <mxGeometry x="-134.89" y="100" width="1000" height="640" as="geometry" />
        </mxCell>
        <mxCell id="6ksjwFMR4yL9y_moFflf-7" value="" style="shape=folder;fontStyle=1;spacingTop=10;tabWidth=80;tabHeight=20;tabPosition=left;html=1;whiteSpace=wrap;fillColor=#d5e8d4;strokeColor=#82b366;" vertex="1" parent="1">
          <mxGeometry x="45.109999999999815" y="810" width="640" height="760" as="geometry" />
        </mxCell>
        <mxCell id="6ksjwFMR4yL9y_moFflf-8" value="&lt;b&gt;&lt;font style=&quot;font-size: 20px;&quot;&gt;Controlador&lt;/font&gt;&lt;/b&gt;" style="text;html=1;strokeColor=#6c8ebf;fillColor=#dae8fc;align=center;verticalAlign=middle;whiteSpace=wrap;rounded=0;" vertex="1" parent="1">
          <mxGeometry x="-134.89" y="90" width="120" height="30" as="geometry" />
        </mxCell>
        <mxCell id="6ksjwFMR4yL9y_moFflf-9" value="&lt;b&gt;&lt;font style=&quot;font-size: 20px;&quot;&gt;Modelo&lt;/font&gt;&lt;/b&gt;" style="text;html=1;strokeColor=#82b366;fillColor=#d5e8d4;align=center;verticalAlign=middle;whiteSpace=wrap;rounded=0;" vertex="1" parent="1">
          <mxGeometry x="45.109999999999815" y="810" width="80" height="20" as="geometry" />
        </mxCell>
        <mxCell id="6ksjwFMR4yL9y_moFflf-16" value="PantallaInicioSuperAdministradorIH" style="swimlane;fontStyle=1;align=center;verticalAlign=top;childLayout=stackLayout;horizontal=1;startSize=26;horizontalStack=0;resizeParent=1;resizeParentMax=0;resizeLast=0;collapsible=1;marginBottom=0;whiteSpace=wrap;html=1;swimlaneFillColor=#F0F0F0;gradientColor=none;" vertex="1" parent="1">
          <mxGeometry x="900.75" y="-522.3600000000001" width="220" height="110" as="geometry" />
        </mxCell>
        <mxCell id="6ksjwFMR4yL9y_moFflf-17" value="" style="line;strokeWidth=1;fillColor=none;align=left;verticalAlign=middle;spacingTop=-1;spacingLeft=3;spacingRight=3;rotatable=0;labelPosition=right;points=[];portConstraint=eastwest;strokeColor=inherit;" vertex="1" parent="6ksjwFMR4yL9y_moFflf-16">
          <mxGeometry y="26" width="220" height="24" as="geometry" />
        </mxCell>
        <mxCell id="6ksjwFMR4yL9y_moFflf-18" value="+ buscarParticipantes()&lt;br&gt;+ buscarTorneos()&lt;br&gt;+ verAdministradores()" style="text;strokeColor=none;fillColor=none;align=left;verticalAlign=top;spacingLeft=4;spacingRight=4;overflow=hidden;rotatable=0;points=[[0,0.5],[1,0.5]];portConstraint=eastwest;whiteSpace=wrap;html=1;" vertex="1" parent="6ksjwFMR4yL9y_moFflf-16">
          <mxGeometry y="50" width="220" height="60" as="geometry" />
        </mxCell>
        <mxCell id="6ksjwFMR4yL9y_moFflf-19" value="RegistroAdministradorIH" style="swimlane;fontStyle=1;align=center;verticalAlign=top;childLayout=stackLayout;horizontal=1;startSize=26;horizontalStack=0;resizeParent=1;resizeParentMax=0;resizeLast=0;collapsible=1;marginBottom=0;whiteSpace=wrap;html=1;swimlaneFillColor=#F0F0F0;gradientColor=none;" vertex="1" parent="1">
          <mxGeometry x="410" y="-850" width="410" height="199.99689655172415" as="geometry" />
        </mxCell>
        <mxCell id="6ksjwFMR4yL9y_moFflf-20" value="- foto: Blob&lt;br&gt;- nombre: String&lt;br&gt;- correo: String&lt;br&gt;- username: String" style="text;strokeColor=none;fillColor=none;align=left;verticalAlign=top;spacingLeft=4;spacingRight=4;overflow=hidden;rotatable=0;points=[[0,0.5],[1,0.5]];portConstraint=eastwest;whiteSpace=wrap;html=1;" vertex="1" parent="6ksjwFMR4yL9y_moFflf-19">
          <mxGeometry y="26" width="410" height="74" as="geometry" />
        </mxCell>
        <mxCell id="6ksjwFMR4yL9y_moFflf-21" value="" style="line;strokeWidth=1;fillColor=none;align=left;verticalAlign=middle;spacingTop=-1;spacingLeft=3;spacingRight=3;rotatable=0;labelPosition=right;points=[];portConstraint=eastwest;strokeColor=inherit;" vertex="1" parent="6ksjwFMR4yL9y_moFflf-19">
          <mxGeometry y="100" width="410" height="26.206896551724142" as="geometry" />
        </mxCell>
        <mxCell id="6ksjwFMR4yL9y_moFflf-22" value="+ registrar(foto:Blob, nombre:String, correo:String, username:String): Bool&lt;br&gt;+ validaCampos(): Bool&lt;br&gt;+ mensajeErrorCampos(mensaje:String)&lt;br&gt;" style="text;strokeColor=none;fillColor=none;align=left;verticalAlign=top;spacingLeft=4;spacingRight=4;overflow=hidden;rotatable=0;points=[[0,0.5],[1,0.5]];portConstraint=eastwest;whiteSpace=wrap;html=1;" vertex="1" parent="6ksjwFMR4yL9y_moFflf-19">
          <mxGeometry y="126.20689655172414" width="410" height="73.79" as="geometry" />
        </mxCell>
        <mxCell id="6ksjwFMR4yL9y_moFflf-23" value="CRUDAdministradoresIH" style="swimlane;fontStyle=1;align=center;verticalAlign=top;childLayout=stackLayout;horizontal=1;startSize=26;horizontalStack=0;resizeParent=1;resizeParentMax=0;resizeLast=0;collapsible=1;marginBottom=0;whiteSpace=wrap;html=1;swimlaneFillColor=#F0F0F0;gradientColor=none;" vertex="1" parent="1">
          <mxGeometry x="-396.3600000000001" y="-850" width="391" height="199.99689655172415" as="geometry" />
        </mxCell>
        <mxCell id="6ksjwFMR4yL9y_moFflf-24" value="" style="line;strokeWidth=1;fillColor=none;align=left;verticalAlign=middle;spacingTop=-1;spacingLeft=3;spacingRight=3;rotatable=0;labelPosition=right;points=[];portConstraint=eastwest;strokeColor=inherit;" vertex="1" parent="6ksjwFMR4yL9y_moFflf-23">
          <mxGeometry y="26" width="391" height="26.206896551724142" as="geometry" />
        </mxCell>
        <mxCell id="6ksjwFMR4yL9y_moFflf-25" value="+ registrarNuevoAdministrador()&lt;br&gt;+ mostrarAdministradores(administradores: List&amp;lt;Administradores&amp;gt;)&lt;br&gt;+ mostrarAdministrador(admin: Administrador)&lt;br&gt;+ editarAdministrador(idAdministrador: int)&lt;br&gt;+ eliminarAdministrador( idAdministrador : int )&lt;br&gt;+ confirmarEliminacionDeAdministrador() : Bool&lt;br&gt;&lt;br&gt;+ mensajeError(mensaje: String)" style="text;strokeColor=none;fillColor=none;align=left;verticalAlign=top;spacingLeft=4;spacingRight=4;overflow=hidden;rotatable=0;points=[[0,0.5],[1,0.5]];portConstraint=eastwest;whiteSpace=wrap;html=1;" vertex="1" parent="6ksjwFMR4yL9y_moFflf-23">
          <mxGeometry y="52.20689655172414" width="391" height="147.79" as="geometry" />
        </mxCell>
        <mxCell id="F1agTI3qjRmrtM2KF93L-1" value="NavbarIH" style="swimlane;fontStyle=1;align=center;verticalAlign=top;childLayout=stackLayout;horizontal=1;startSize=26;horizontalStack=0;resizeParent=1;resizeParentMax=0;resizeLast=0;collapsible=1;marginBottom=0;whiteSpace=wrap;html=1;swimlaneFillColor=#F0F0F0;gradientColor=none;" vertex="1" parent="1">
          <mxGeometry x="1110.0048275862068" y="-622.3600000000001" width="182.07" height="89.99689655172415" as="geometry" />
        </mxCell>
        <mxCell id="F1agTI3qjRmrtM2KF93L-2" value="" style="line;strokeWidth=1;fillColor=none;align=left;verticalAlign=middle;spacingTop=-1;spacingLeft=3;spacingRight=3;rotatable=0;labelPosition=right;points=[];portConstraint=eastwest;strokeColor=inherit;" vertex="1" parent="F1agTI3qjRmrtM2KF93L-1">
          <mxGeometry y="26" width="182.07" height="26.206896551724142" as="geometry" />
        </mxCell>
        <mxCell id="F1agTI3qjRmrtM2KF93L-3" value="+ verPerfil(idParticipante: int)&lt;br&gt;+ cerrarSesion()" style="text;strokeColor=none;fillColor=none;align=left;verticalAlign=top;spacingLeft=4;spacingRight=4;overflow=hidden;rotatable=0;points=[[0,0.5],[1,0.5]];portConstraint=eastwest;whiteSpace=wrap;html=1;" vertex="1" parent="F1agTI3qjRmrtM2KF93L-1">
          <mxGeometry y="52.20689655172414" width="182.07" height="37.79" as="geometry" />
        </mxCell>
        <mxCell id="F1agTI3qjRmrtM2KF93L-13" value="PantallaInicioAdministradorIH" style="swimlane;fontStyle=1;align=center;verticalAlign=top;childLayout=stackLayout;horizontal=1;startSize=26;horizontalStack=0;resizeParent=1;resizeParentMax=0;resizeLast=0;collapsible=1;marginBottom=0;whiteSpace=wrap;html=1;swimlaneFillColor=#F0F0F0;gradientColor=none;" vertex="1" parent="1">
          <mxGeometry x="900.7457413793104" y="-402.3602150164729" width="285.1050681818182" height="102.34795357653235" as="geometry" />
        </mxCell>
        <mxCell id="F1agTI3qjRmrtM2KF93L-14" value="" style="line;strokeWidth=1;fillColor=none;align=left;verticalAlign=middle;spacingTop=-1;spacingLeft=3;spacingRight=3;rotatable=0;labelPosition=right;points=[];portConstraint=eastwest;strokeColor=inherit;" vertex="1" parent="F1agTI3qjRmrtM2KF93L-13">
          <mxGeometry y="26" width="285.1050681818182" height="31.264686713345252" as="geometry" />
        </mxCell>
        <mxCell id="F1agTI3qjRmrtM2KF93L-15" value="+ buscarParticipantes()&lt;br style=&quot;border-color: var(--border-color);&quot;&gt;+ buscarTorneos()" style="text;strokeColor=none;fillColor=none;align=left;verticalAlign=top;spacingLeft=4;spacingRight=4;overflow=hidden;rotatable=0;points=[[0,0.5],[1,0.5]];portConstraint=eastwest;whiteSpace=wrap;html=1;" vertex="1" parent="F1agTI3qjRmrtM2KF93L-13">
          <mxGeometry y="57.264686713345256" width="285.1050681818182" height="45.08326686318709" as="geometry" />
        </mxCell>
        <mxCell id="F1agTI3qjRmrtM2KF93L-16" value="EdicionAdministradorIH" style="swimlane;fontStyle=1;align=center;verticalAlign=top;childLayout=stackLayout;horizontal=1;startSize=26;horizontalStack=0;resizeParent=1;resizeParentMax=0;resizeLast=0;collapsible=1;marginBottom=0;whiteSpace=wrap;html=1;swimlaneFillColor=#F0F0F0;gradientColor=none;" vertex="1" parent="1">
          <mxGeometry x="10" y="-850" width="390" height="199.99689655172415" as="geometry" />
        </mxCell>
        <mxCell id="F1agTI3qjRmrtM2KF93L-17" value="- idAdministrador: int&lt;br&gt;- nombreAdministrador: String&lt;br&gt;- correoAdministrador: String" style="text;strokeColor=none;fillColor=none;align=left;verticalAlign=top;spacingLeft=4;spacingRight=4;overflow=hidden;rotatable=0;points=[[0,0.5],[1,0.5]];portConstraint=eastwest;whiteSpace=wrap;html=1;" vertex="1" parent="F1agTI3qjRmrtM2KF93L-16">
          <mxGeometry y="26" width="390" height="74" as="geometry" />
        </mxCell>
        <mxCell id="F1agTI3qjRmrtM2KF93L-18" value="" style="line;strokeWidth=1;fillColor=none;align=left;verticalAlign=middle;spacingTop=-1;spacingLeft=3;spacingRight=3;rotatable=0;labelPosition=right;points=[];portConstraint=eastwest;strokeColor=inherit;" vertex="1" parent="F1agTI3qjRmrtM2KF93L-16">
          <mxGeometry y="100" width="390" height="26.206896551724142" as="geometry" />
        </mxCell>
        <mxCell id="F1agTI3qjRmrtM2KF93L-19" value="+ aplicarCambios(idAdministrador:int, nombreAdministrador: String,&amp;nbsp; &amp;nbsp; &amp;nbsp; &amp;nbsp; &amp;nbsp; &amp;nbsp; &amp;nbsp; &amp;nbsp; &amp;nbsp; &amp;nbsp; &amp;nbsp; &amp;nbsp; &amp;nbsp; &amp;nbsp; &amp;nbsp; &amp;nbsp; &amp;nbsp; &amp;nbsp; &amp;nbsp; &amp;nbsp; &amp;nbsp; &amp;nbsp; &amp;nbsp; &amp;nbsp; &amp;nbsp; &amp;nbsp; correoAdministrador: String)&lt;br&gt;+ validaCampos(): Bool&lt;br&gt;+ mensajeErrorCampos(mensaje:String)" style="text;strokeColor=none;fillColor=none;align=left;verticalAlign=top;spacingLeft=4;spacingRight=4;overflow=hidden;rotatable=0;points=[[0,0.5],[1,0.5]];portConstraint=eastwest;whiteSpace=wrap;html=1;" vertex="1" parent="F1agTI3qjRmrtM2KF93L-16">
          <mxGeometry y="126.20689655172414" width="390" height="73.79" as="geometry" />
        </mxCell>
        <mxCell id="9bTyPNuZeEl7Rt4xwHEf-6" value="IniciarSesionIH" style="swimlane;fontStyle=1;align=center;verticalAlign=top;childLayout=stackLayout;horizontal=1;startSize=26;horizontalStack=0;resizeParent=1;resizeParentMax=0;resizeLast=0;collapsible=1;marginBottom=0;whiteSpace=wrap;html=1;swimlaneFillColor=#F0F0F0;gradientColor=none;" vertex="1" parent="1">
          <mxGeometry x="579.9957413793104" y="-622.3602150164729" width="285.11" height="160.00468671334525" as="geometry" />
        </mxCell>
        <mxCell id="F1agTI3qjRmrtM2KF93L-24" value="- idUsuarios : int" style="text;html=1;strokeColor=none;fillColor=none;align=left;verticalAlign=middle;whiteSpace=wrap;rounded=0;" vertex="1" parent="9bTyPNuZeEl7Rt4xwHEf-6">
          <mxGeometry y="26" width="285.11" height="30" as="geometry" />
        </mxCell>
        <mxCell id="9bTyPNuZeEl7Rt4xwHEf-7" value="" style="line;strokeWidth=1;fillColor=none;align=left;verticalAlign=middle;spacingTop=-1;spacingLeft=3;spacingRight=3;rotatable=0;labelPosition=right;points=[];portConstraint=eastwest;strokeColor=inherit;" vertex="1" parent="9bTyPNuZeEl7Rt4xwHEf-6">
          <mxGeometry y="56" width="285.11" height="31.264686713345252" as="geometry" />
        </mxCell>
        <mxCell id="9bTyPNuZeEl7Rt4xwHEf-8" value="+ iniciarSesión( correo:String, password : String )&lt;br&gt;+ crearCuenta()&lt;br&gt;+ validarCampos()&lt;br&gt;+ mensajeError(mensaje: String)" style="text;strokeColor=none;fillColor=none;align=left;verticalAlign=top;spacingLeft=4;spacingRight=4;overflow=hidden;rotatable=0;points=[[0,0.5],[1,0.5]];portConstraint=eastwest;whiteSpace=wrap;html=1;" vertex="1" parent="9bTyPNuZeEl7Rt4xwHEf-6">
          <mxGeometry y="87.26468671334526" width="285.11" height="72.74" as="geometry" />
        </mxCell>
        <mxCell id="F1agTI3qjRmrtM2KF93L-25" value="BuscarParticipantesIH" style="swimlane;fontStyle=1;align=center;verticalAlign=top;childLayout=stackLayout;horizontal=1;startSize=26;horizontalStack=0;resizeParent=1;resizeParentMax=0;resizeLast=0;collapsible=1;marginBottom=0;whiteSpace=wrap;html=1;swimlaneFillColor=#F0F0F0;gradientColor=none;" vertex="1" parent="1">
          <mxGeometry x="252.44999999999982" y="-270" width="579.24" height="149.99689655172415" as="geometry" />
        </mxCell>
        <mxCell id="F1agTI3qjRmrtM2KF93L-35" value="+ busquedaEnBarraDeBusqueda()" style="text;html=1;strokeColor=none;fillColor=none;align=left;verticalAlign=middle;whiteSpace=wrap;rounded=0;" vertex="1" parent="F1agTI3qjRmrtM2KF93L-25">
          <mxGeometry y="26" width="579.24" height="30" as="geometry" />
        </mxCell>
        <mxCell id="F1agTI3qjRmrtM2KF93L-26" value="" style="line;strokeWidth=1;fillColor=none;align=left;verticalAlign=middle;spacingTop=-1;spacingLeft=3;spacingRight=3;rotatable=0;labelPosition=right;points=[];portConstraint=eastwest;strokeColor=inherit;" vertex="1" parent="F1agTI3qjRmrtM2KF93L-25">
          <mxGeometry y="56" width="579.24" height="26.206896551724142" as="geometry" />
        </mxCell>
        <mxCell id="F1agTI3qjRmrtM2KF93L-27" value="+ mostrarParticipantes( participantes : List&amp;lt;Participante&amp;gt; )&lt;br&gt;+ mostrarParticipante( participante : Participante )&lt;br&gt;+ mensajeError( mensaje : String )&lt;br&gt;+ obtenerTextoBarraDeBusqueda()" style="text;strokeColor=none;fillColor=none;align=left;verticalAlign=top;spacingLeft=4;spacingRight=4;overflow=hidden;rotatable=0;points=[[0,0.5],[1,0.5]];portConstraint=eastwest;whiteSpace=wrap;html=1;" vertex="1" parent="F1agTI3qjRmrtM2KF93L-25">
          <mxGeometry y="82.20689655172414" width="579.24" height="67.79" as="geometry" />
        </mxCell>
        <mxCell id="9bTyPNuZeEl7Rt4xwHEf-11" value="InformacionTorneoIH" style="swimlane;fontStyle=1;align=center;verticalAlign=top;childLayout=stackLayout;horizontal=1;startSize=26;horizontalStack=0;resizeParent=1;resizeParentMax=0;resizeLast=0;collapsible=1;marginBottom=0;whiteSpace=wrap;html=1;swimlaneLine=1;glass=0;rounded=0;shadow=0;" vertex="1" parent="1">
          <mxGeometry x="252.44999999999982" y="-380" width="300" height="78" as="geometry" />
        </mxCell>
        <mxCell id="9bTyPNuZeEl7Rt4xwHEf-12" value="+ regresar()" style="text;strokeColor=#666666;fillColor=#f5f5f5;align=left;verticalAlign=top;spacingLeft=4;spacingRight=4;overflow=hidden;rotatable=0;points=[[0,0.5],[1,0.5]];portConstraint=eastwest;whiteSpace=wrap;html=1;fontColor=#333333;" vertex="1" parent="9bTyPNuZeEl7Rt4xwHEf-11">
          <mxGeometry y="26" width="300" height="26" as="geometry" />
        </mxCell>
        <mxCell id="9bTyPNuZeEl7Rt4xwHEf-13" value="+ obtenerInformacion( idTorneo : int )&amp;nbsp; : Torneo" style="text;strokeColor=#666666;fillColor=#f5f5f5;align=left;verticalAlign=top;spacingLeft=4;spacingRight=4;overflow=hidden;rotatable=0;points=[[0,0.5],[1,0.5]];portConstraint=eastwest;whiteSpace=wrap;html=1;fontColor=#333333;" vertex="1" parent="9bTyPNuZeEl7Rt4xwHEf-11">
          <mxGeometry y="52" width="300" height="26" as="geometry" />
        </mxCell>
        <mxCell id="F1agTI3qjRmrtM2KF93L-31" value="CRUDTorneosIH" style="swimlane;fontStyle=1;align=center;verticalAlign=top;childLayout=stackLayout;horizontal=1;startSize=26;horizontalStack=0;resizeParent=1;resizeParentMax=0;resizeLast=0;collapsible=1;marginBottom=0;whiteSpace=wrap;html=1;swimlaneFillColor=#F0F0F0;gradientColor=none;" vertex="1" parent="1">
          <mxGeometry x="252.449832288401" y="-630.000215016473" width="285.11" height="241.26468671334527" as="geometry" />
        </mxCell>
        <mxCell id="F1agTI3qjRmrtM2KF93L-36" value="- entrada: String" style="text;html=1;strokeColor=none;fillColor=none;align=left;verticalAlign=middle;whiteSpace=wrap;rounded=0;" vertex="1" parent="F1agTI3qjRmrtM2KF93L-31">
          <mxGeometry y="26" width="285.11" height="24" as="geometry" />
        </mxCell>
        <mxCell id="F1agTI3qjRmrtM2KF93L-32" value="" style="line;strokeWidth=1;fillColor=none;align=left;verticalAlign=middle;spacingTop=-1;spacingLeft=3;spacingRight=3;rotatable=0;labelPosition=right;points=[];portConstraint=eastwest;strokeColor=inherit;" vertex="1" parent="F1agTI3qjRmrtM2KF93L-31">
          <mxGeometry y="50" width="285.11" height="31.264686713345252" as="geometry" />
        </mxCell>
        <mxCell id="F1agTI3qjRmrtM2KF93L-33" value="+ crearTorneo()&lt;br&gt;+ listarTorneos()&lt;br&gt;+ verInformaciónDeTorneo(idTorneo: int)&lt;br&gt;+ editarTorneo(idTorneo:int)&lt;br&gt;+ buscarTorneo( entradas : String )&lt;br&gt;+ entrarTorneo(idTorneo: int, idParticipante: int)&lt;br&gt;+ mensaje( mensaje : String )&lt;br&gt;+ mensajeErrorTorneo( mensaje : String )&lt;br&gt;+ eliminarTorneo( idTorneo : int )&lt;br&gt;+ confirmarEliminacionDeTorneo() : Bool" style="text;strokeColor=none;fillColor=none;align=left;verticalAlign=top;spacingLeft=4;spacingRight=4;overflow=hidden;rotatable=0;points=[[0,0.5],[1,0.5]];portConstraint=eastwest;whiteSpace=wrap;html=1;" vertex="1" parent="F1agTI3qjRmrtM2KF93L-31">
          <mxGeometry y="81.26468671334526" width="285.11" height="160" as="geometry" />
        </mxCell>
        <mxCell id="F1agTI3qjRmrtM2KF93L-37" value="FormularioEdicionTorneoIH" style="swimlane;fontStyle=1;align=center;verticalAlign=top;childLayout=stackLayout;horizontal=1;startSize=26;horizontalStack=0;resizeParent=1;resizeParentMax=0;resizeLast=0;collapsible=1;marginBottom=0;whiteSpace=wrap;html=1;swimlaneFillColor=#F0F0F0;gradientColor=none;" vertex="1" parent="1">
          <mxGeometry x="-396.3618181818183" y="-630.0042159383033" width="626.36" height="329.9964409183583" as="geometry" />
        </mxCell>
        <mxCell id="F1agTI3qjRmrtM2KF93L-38" value="- idTorneo:int&lt;br&gt;- foto: Blob&lt;br&gt;- nombreTorneo: String&lt;br&gt;- nombreVideojuego:String&lt;br&gt;- consola:String&lt;br&gt;- reglas:String&lt;br&gt;- numeroParticipantes:int&lt;br&gt;- fechaInicio: date&lt;br&gt;- fechaFin: date" style="text;strokeColor=none;fillColor=none;align=left;verticalAlign=top;spacingLeft=4;spacingRight=4;overflow=hidden;rotatable=0;points=[[0,0.5],[1,0.5]];portConstraint=eastwest;whiteSpace=wrap;html=1;" vertex="1" parent="F1agTI3qjRmrtM2KF93L-37">
          <mxGeometry y="26" width="626.36" height="159.17737789203082" as="geometry" />
        </mxCell>
        <mxCell id="F1agTI3qjRmrtM2KF93L-39" value="" style="line;strokeWidth=1;fillColor=none;align=left;verticalAlign=middle;spacingTop=-1;spacingLeft=3;spacingRight=3;rotatable=0;labelPosition=right;points=[];portConstraint=eastwest;strokeColor=inherit;" vertex="1" parent="F1agTI3qjRmrtM2KF93L-37">
          <mxGeometry y="185.17737789203082" width="626.36" height="28.969063026327454" as="geometry" />
        </mxCell>
        <mxCell id="F1agTI3qjRmrtM2KF93L-40" value="+ aplicarCambios(idTorneo:int, foto:Blob, nombreTorneo:String, nombreVideojuego:String&lt;br&gt;&lt;span style=&quot;&quot;&gt;&lt;span style=&quot;white-space: pre;&quot;&gt;&amp;nbsp;&amp;nbsp;&amp;nbsp;&amp;nbsp;&lt;/span&gt;&lt;/span&gt;&lt;span style=&quot;&quot;&gt;&lt;span style=&quot;white-space: pre;&quot;&gt;&amp;nbsp;&amp;nbsp;&amp;nbsp;&amp;nbsp;&lt;/span&gt;&lt;/span&gt;&lt;span style=&quot;&quot;&gt;&lt;span style=&quot;white-space: pre;&quot;&gt;&amp;nbsp;&amp;nbsp;&amp;nbsp;&amp;nbsp;&lt;/span&gt;&lt;/span&gt;&amp;nbsp; &amp;nbsp; &amp;nbsp;consola:String, reglas:String, numeroParticipantes:int, fechaInicio:date, fechaFin:date): Bool&lt;br&gt;+ validaCampos(): Bool&lt;br style=&quot;border-color: var(--border-color);&quot;&gt;+ mensajeErrorCampos(mensaje:String)" style="text;strokeColor=none;fillColor=none;align=left;verticalAlign=top;spacingLeft=4;spacingRight=4;overflow=hidden;rotatable=0;points=[[0,0.5],[1,0.5]];portConstraint=eastwest;whiteSpace=wrap;html=1;" vertex="1" parent="F1agTI3qjRmrtM2KF93L-37">
          <mxGeometry y="214.14644091835828" width="626.36" height="115.85" as="geometry" />
        </mxCell>
        <mxCell id="F1agTI3qjRmrtM2KF93L-41" value="CrearCuentaIH" style="swimlane;fontStyle=1;align=center;verticalAlign=top;childLayout=stackLayout;horizontal=1;startSize=26;horizontalStack=0;resizeParent=1;resizeParentMax=0;resizeLast=0;collapsible=1;marginBottom=0;whiteSpace=wrap;html=1;swimlaneFillColor=#F0F0F0;gradientColor=none;" vertex="1" parent="1">
          <mxGeometry x="579.9998322884012" y="-450.0102150164731" width="285.11" height="150.00468671334525" as="geometry" />
        </mxCell>
        <mxCell id="F1agTI3qjRmrtM2KF93L-42" value="+ participante: Participante" style="text;html=1;strokeColor=none;fillColor=none;align=left;verticalAlign=middle;whiteSpace=wrap;rounded=0;" vertex="1" parent="F1agTI3qjRmrtM2KF93L-41">
          <mxGeometry y="26" width="285.11" height="30" as="geometry" />
        </mxCell>
        <mxCell id="F1agTI3qjRmrtM2KF93L-43" value="" style="line;strokeWidth=1;fillColor=none;align=left;verticalAlign=middle;spacingTop=-1;spacingLeft=3;spacingRight=3;rotatable=0;labelPosition=right;points=[];portConstraint=eastwest;strokeColor=inherit;" vertex="1" parent="F1agTI3qjRmrtM2KF93L-41">
          <mxGeometry y="56" width="285.11" height="31.264686713345252" as="geometry" />
        </mxCell>
        <mxCell id="F1agTI3qjRmrtM2KF93L-44" value="+ mostrarFormulario()&lt;br&gt;+ crearParticipante()&lt;br&gt;+ mensajeError(mensaje:String)" style="text;strokeColor=none;fillColor=none;align=left;verticalAlign=top;spacingLeft=4;spacingRight=4;overflow=hidden;rotatable=0;points=[[0,0.5],[1,0.5]];portConstraint=eastwest;whiteSpace=wrap;html=1;" vertex="1" parent="F1agTI3qjRmrtM2KF93L-41">
          <mxGeometry y="87.26468671334526" width="285.11" height="62.74" as="geometry" />
        </mxCell>
        <mxCell id="F1agTI3qjRmrtM2KF93L-46" value="PantallaInicioParticipanteIH" style="swimlane;fontStyle=1;align=center;verticalAlign=top;childLayout=stackLayout;horizontal=1;startSize=26;horizontalStack=0;resizeParent=1;resizeParentMax=0;resizeLast=0;collapsible=1;marginBottom=0;whiteSpace=wrap;html=1;swimlaneFillColor=#F0F0F0;gradientColor=none;" vertex="1" parent="1">
          <mxGeometry x="900.7548275862068" y="-622.3600000000001" width="182.07" height="89.99689655172415" as="geometry" />
        </mxCell>
        <mxCell id="F1agTI3qjRmrtM2KF93L-47" value="" style="line;strokeWidth=1;fillColor=none;align=left;verticalAlign=middle;spacingTop=-1;spacingLeft=3;spacingRight=3;rotatable=0;labelPosition=right;points=[];portConstraint=eastwest;strokeColor=inherit;" vertex="1" parent="F1agTI3qjRmrtM2KF93L-46">
          <mxGeometry y="26" width="182.07" height="26.206896551724142" as="geometry" />
        </mxCell>
        <mxCell id="F1agTI3qjRmrtM2KF93L-48" value="+ buscarParticipantes()&lt;br&gt;+ buscarTorneos()" style="text;strokeColor=none;fillColor=none;align=left;verticalAlign=top;spacingLeft=4;spacingRight=4;overflow=hidden;rotatable=0;points=[[0,0.5],[1,0.5]];portConstraint=eastwest;whiteSpace=wrap;html=1;" vertex="1" parent="F1agTI3qjRmrtM2KF93L-46">
          <mxGeometry y="52.20689655172414" width="182.07" height="37.79" as="geometry" />
        </mxCell>
        <mxCell id="F1agTI3qjRmrtM2KF93L-52" value="EdicionParticipanteIH" style="swimlane;fontStyle=1;align=center;verticalAlign=top;childLayout=stackLayout;horizontal=1;startSize=26;horizontalStack=0;resizeParent=1;resizeParentMax=0;resizeLast=0;collapsible=1;marginBottom=0;whiteSpace=wrap;html=1;swimlaneFillColor=#F0F0F0;gradientColor=none;" vertex="1" parent="1">
          <mxGeometry x="845.11" y="-850" width="460" height="199.99689655172415" as="geometry" />
        </mxCell>
        <mxCell id="F1agTI3qjRmrtM2KF93L-53" value="+ participante: Participante" style="text;strokeColor=none;fillColor=none;align=left;verticalAlign=top;spacingLeft=4;spacingRight=4;overflow=hidden;rotatable=0;points=[[0,0.5],[1,0.5]];portConstraint=eastwest;whiteSpace=wrap;html=1;" vertex="1" parent="F1agTI3qjRmrtM2KF93L-52">
          <mxGeometry y="26" width="460" height="34" as="geometry" />
        </mxCell>
        <mxCell id="F1agTI3qjRmrtM2KF93L-54" value="" style="line;strokeWidth=1;fillColor=none;align=left;verticalAlign=middle;spacingTop=-1;spacingLeft=3;spacingRight=3;rotatable=0;labelPosition=right;points=[];portConstraint=eastwest;strokeColor=inherit;" vertex="1" parent="F1agTI3qjRmrtM2KF93L-52">
          <mxGeometry y="60" width="460" height="26.206896551724142" as="geometry" />
        </mxCell>
        <mxCell id="F1agTI3qjRmrtM2KF93L-55" value="+ aplicarCambios(idAdministrador:int, nombreAdministrador: String, correoAdministrador: String)&lt;br&gt;+ validaCampos(): Bool&lt;br&gt;+ mensajeErrorCampos(mensaje:String)&lt;br&gt;+ mostrarFormulario()&lt;br&gt;+ modificarDatosParticipante()&lt;br&gt;+ mensajeError( mensaje : String )" style="text;strokeColor=none;fillColor=none;align=left;verticalAlign=top;spacingLeft=4;spacingRight=4;overflow=hidden;rotatable=0;points=[[0,0.5],[1,0.5]];portConstraint=eastwest;whiteSpace=wrap;html=1;" vertex="1" parent="F1agTI3qjRmrtM2KF93L-52">
          <mxGeometry y="86.20689655172414" width="460" height="113.79" as="geometry" />
        </mxCell>
        <mxCell id="F1agTI3qjRmrtM2KF93L-59" value="PerfilUsuarioIH" style="swimlane;fontStyle=1;align=center;verticalAlign=top;childLayout=stackLayout;horizontal=1;startSize=26;horizontalStack=0;resizeParent=1;resizeParentMax=0;resizeLast=0;collapsible=1;marginBottom=0;whiteSpace=wrap;html=1;swimlaneFillColor=#F0F0F0;gradientColor=none;" vertex="1" parent="1">
          <mxGeometry x="855.85" y="-270" width="330" height="129.99689655172415" as="geometry" />
        </mxCell>
        <mxCell id="F1agTI3qjRmrtM2KF93L-60" value="" style="line;strokeWidth=1;fillColor=none;align=left;verticalAlign=middle;spacingTop=-1;spacingLeft=3;spacingRight=3;rotatable=0;labelPosition=right;points=[];portConstraint=eastwest;strokeColor=inherit;" vertex="1" parent="F1agTI3qjRmrtM2KF93L-59">
          <mxGeometry y="26" width="330" height="26.206896551724142" as="geometry" />
        </mxCell>
        <mxCell id="F1agTI3qjRmrtM2KF93L-61" value="+ regresar()&lt;br&gt;+ obtenerInformacion(idParticipante: int): Participante&lt;br&gt;+ editarPerfil()&lt;br style=&quot;border-color: var(--border-color);&quot;&gt;+ eliminarPerfil()" style="text;strokeColor=none;fillColor=none;align=left;verticalAlign=top;spacingLeft=4;spacingRight=4;overflow=hidden;rotatable=0;points=[[0,0.5],[1,0.5]];portConstraint=eastwest;whiteSpace=wrap;html=1;" vertex="1" parent="F1agTI3qjRmrtM2KF93L-59">
          <mxGeometry y="52.20689655172414" width="330" height="77.79" as="geometry" />
        </mxCell>
        <mxCell id="F1agTI3qjRmrtM2KF93L-66" value="AdministradorBD" style="swimlane;fontStyle=1;align=center;verticalAlign=top;childLayout=stackLayout;horizontal=1;startSize=26;horizontalStack=0;resizeParent=1;resizeParentMax=0;resizeLast=0;collapsible=1;marginBottom=0;whiteSpace=wrap;html=1;swimlaneFillColor=#F0F0F0;gradientColor=none;" vertex="1" parent="1">
          <mxGeometry x="65.10999999999981" y="849.9899999999998" width="610" height="170.00413793103448" as="geometry" />
        </mxCell>
        <mxCell id="F1agTI3qjRmrtM2KF93L-67" value="- administrador: Administrador" style="text;strokeColor=none;fillColor=none;align=left;verticalAlign=top;spacingLeft=4;spacingRight=4;overflow=hidden;rotatable=0;points=[[0,0.5],[1,0.5]];portConstraint=eastwest;whiteSpace=wrap;html=1;" vertex="1" parent="F1agTI3qjRmrtM2KF93L-66">
          <mxGeometry y="26" width="610" height="24" as="geometry" />
        </mxCell>
        <mxCell id="F1agTI3qjRmrtM2KF93L-68" value="" style="line;strokeWidth=1;fillColor=none;align=left;verticalAlign=middle;spacingTop=-1;spacingLeft=3;spacingRight=3;rotatable=0;labelPosition=right;points=[];portConstraint=eastwest;strokeColor=inherit;" vertex="1" parent="F1agTI3qjRmrtM2KF93L-66">
          <mxGeometry y="50" width="610" height="31.724137931034484" as="geometry" />
        </mxCell>
        <mxCell id="F1agTI3qjRmrtM2KF93L-69" value="+ obtenerAdministradores() : List&amp;lt;Administrador&amp;gt;&lt;br&gt;+ obtenerAdministrador( idAdministrador : int ) : Administrador&lt;br&gt;+ guardarAdministrador( administrador: Administrador ) : Bool&lt;br&gt;+ eliminarAdministrador( idAdministrador: int ) : Bool&lt;br&gt;+ editarAdministrador( idAdministrador : int, nombreAdministrador : String, correoAdministrador : String )" style="text;strokeColor=none;fillColor=none;align=left;verticalAlign=top;spacingLeft=4;spacingRight=4;overflow=hidden;rotatable=0;points=[[0,0.5],[1,0.5]];portConstraint=eastwest;whiteSpace=wrap;html=1;" vertex="1" parent="F1agTI3qjRmrtM2KF93L-66">
          <mxGeometry y="81.72413793103448" width="610" height="88.28" as="geometry" />
        </mxCell>
        <mxCell id="F1agTI3qjRmrtM2KF93L-70" value="ConexionBD" style="swimlane;fontStyle=1;align=center;verticalAlign=top;childLayout=stackLayout;horizontal=1;startSize=26;horizontalStack=0;resizeParent=1;resizeParentMax=0;resizeLast=0;collapsible=1;marginBottom=0;whiteSpace=wrap;html=1;swimlaneFillColor=#F0F0F0;gradientColor=none;" vertex="1" parent="1">
          <mxGeometry x="505.1141463414634" y="1240" width="170.73170731707316" height="97.2115063520871" as="geometry" />
        </mxCell>
        <mxCell id="F1agTI3qjRmrtM2KF93L-71" value="" style="line;strokeWidth=1;fillColor=none;align=left;verticalAlign=middle;spacingTop=-1;spacingLeft=3;spacingRight=3;rotatable=0;labelPosition=right;points=[];portConstraint=eastwest;strokeColor=inherit;" vertex="1" parent="F1agTI3qjRmrtM2KF93L-70">
          <mxGeometry y="26" width="170.73170731707316" height="31.724137931034484" as="geometry" />
        </mxCell>
        <mxCell id="F1agTI3qjRmrtM2KF93L-72" value="+ conectarBD()&lt;br&gt;+ desconectarBD()" style="text;strokeColor=none;fillColor=none;align=left;verticalAlign=top;spacingLeft=4;spacingRight=4;overflow=hidden;rotatable=0;points=[[0,0.5],[1,0.5]];portConstraint=eastwest;whiteSpace=wrap;html=1;" vertex="1" parent="F1agTI3qjRmrtM2KF93L-70">
          <mxGeometry y="57.724137931034484" width="170.73170731707316" height="39.48736842105262" as="geometry" />
        </mxCell>
        <mxCell id="F1agTI3qjRmrtM2KF93L-74" value="InicioSesionBD" style="swimlane;fontStyle=1;align=center;verticalAlign=top;childLayout=stackLayout;horizontal=1;startSize=26;horizontalStack=0;resizeParent=1;resizeParentMax=0;resizeLast=0;collapsible=1;marginBottom=0;whiteSpace=wrap;html=1;swimlaneFillColor=#F0F0F0;gradientColor=none;" vertex="1" parent="1">
          <mxGeometry x="409.1099999999998" y="1360" width="266" height="97.2115063520871" as="geometry" />
        </mxCell>
        <mxCell id="F1agTI3qjRmrtM2KF93L-75" value="" style="line;strokeWidth=1;fillColor=none;align=left;verticalAlign=middle;spacingTop=-1;spacingLeft=3;spacingRight=3;rotatable=0;labelPosition=right;points=[];portConstraint=eastwest;strokeColor=inherit;" vertex="1" parent="F1agTI3qjRmrtM2KF93L-74">
          <mxGeometry y="26" width="266" height="31.724137931034484" as="geometry" />
        </mxCell>
        <mxCell id="F1agTI3qjRmrtM2KF93L-76" value="+ iniciarSesion(correo:String, password:String)" style="text;strokeColor=none;fillColor=none;align=left;verticalAlign=top;spacingLeft=4;spacingRight=4;overflow=hidden;rotatable=0;points=[[0,0.5],[1,0.5]];portConstraint=eastwest;whiteSpace=wrap;html=1;" vertex="1" parent="F1agTI3qjRmrtM2KF93L-74">
          <mxGeometry y="57.724137931034484" width="266" height="39.48736842105262" as="geometry" />
        </mxCell>
        <mxCell id="F1agTI3qjRmrtM2KF93L-77" value="TorneoBD" style="swimlane;fontStyle=1;align=center;verticalAlign=top;childLayout=stackLayout;horizontal=1;startSize=26;horizontalStack=0;resizeParent=1;resizeParentMax=0;resizeLast=0;collapsible=1;marginBottom=0;whiteSpace=wrap;html=1;swimlaneFillColor=#F0F0F0;gradientColor=none;" vertex="1" parent="1">
          <mxGeometry x="65" y="1370" width="305" height="189.99689655172415" as="geometry" />
        </mxCell>
        <mxCell id="F1agTI3qjRmrtM2KF93L-78" value="- torneo: Torneo" style="text;strokeColor=none;fillColor=none;align=left;verticalAlign=top;spacingLeft=4;spacingRight=4;overflow=hidden;rotatable=0;points=[[0,0.5],[1,0.5]];portConstraint=eastwest;whiteSpace=wrap;html=1;" vertex="1" parent="F1agTI3qjRmrtM2KF93L-77">
          <mxGeometry y="26" width="305" height="24" as="geometry" />
        </mxCell>
        <mxCell id="F1agTI3qjRmrtM2KF93L-79" value="" style="line;strokeWidth=1;fillColor=none;align=left;verticalAlign=middle;spacingTop=-1;spacingLeft=3;spacingRight=3;rotatable=0;labelPosition=right;points=[];portConstraint=eastwest;strokeColor=inherit;" vertex="1" parent="F1agTI3qjRmrtM2KF93L-77">
          <mxGeometry y="50" width="305" height="26.206896551724142" as="geometry" />
        </mxCell>
        <mxCell id="F1agTI3qjRmrtM2KF93L-80" value="+ obtenerTorneo(idTorneo:int):Torneo&lt;br&gt;+ editarTorneo(idTorneo:int, torneoActualizado:Torneo )&lt;br&gt;+ obtenerTorneos(entrada:String): List&amp;lt;Torneo&amp;gt;&lt;br&gt;+ eliminarTorneo(idTorneo: int): Bool" style="text;strokeColor=none;fillColor=none;align=left;verticalAlign=top;spacingLeft=4;spacingRight=4;overflow=hidden;rotatable=0;points=[[0,0.5],[1,0.5]];portConstraint=eastwest;whiteSpace=wrap;html=1;" vertex="1" parent="F1agTI3qjRmrtM2KF93L-77">
          <mxGeometry y="76.20689655172414" width="305" height="113.79" as="geometry" />
        </mxCell>
        <mxCell id="F1agTI3qjRmrtM2KF93L-81" value="ParticipanteBD" style="swimlane;fontStyle=1;align=center;verticalAlign=top;childLayout=stackLayout;horizontal=1;startSize=26;horizontalStack=0;resizeParent=1;resizeParentMax=0;resizeLast=0;collapsible=1;marginBottom=0;whiteSpace=wrap;html=1;swimlaneFillColor=#F0F0F0;gradientColor=none;" vertex="1" parent="1">
          <mxGeometry x="65.10999999999981" y="1037.21" width="440" height="189.99689655172415" as="geometry" />
        </mxCell>
        <mxCell id="F1agTI3qjRmrtM2KF93L-82" value="- participante: Participante" style="text;strokeColor=none;fillColor=none;align=left;verticalAlign=top;spacingLeft=4;spacingRight=4;overflow=hidden;rotatable=0;points=[[0,0.5],[1,0.5]];portConstraint=eastwest;whiteSpace=wrap;html=1;" vertex="1" parent="F1agTI3qjRmrtM2KF93L-81">
          <mxGeometry y="26" width="440" height="24" as="geometry" />
        </mxCell>
        <mxCell id="F1agTI3qjRmrtM2KF93L-83" value="" style="line;strokeWidth=1;fillColor=none;align=left;verticalAlign=middle;spacingTop=-1;spacingLeft=3;spacingRight=3;rotatable=0;labelPosition=right;points=[];portConstraint=eastwest;strokeColor=inherit;" vertex="1" parent="F1agTI3qjRmrtM2KF93L-81">
          <mxGeometry y="50" width="440" height="26.206896551724142" as="geometry" />
        </mxCell>
        <mxCell id="F1agTI3qjRmrtM2KF93L-84" value="+ existeCorreo(correo: String): boolean&lt;br&gt;+ crearParticipante(participante: Participante)&lt;br&gt;+ obtenerIdPorCorreo( correo : String ) : int&lt;br&gt;+ obtenerIdPorUsername( username : String ) : int&lt;br&gt;+ obtenerParticipante( idParticipante : int ): Participante&lt;br&gt;+ eliminarParticipante(idParticipante: int)&lt;br&gt;+ modificarDatos( idParticipante : int, participanteEditado : Participante )" style="text;strokeColor=none;fillColor=none;align=left;verticalAlign=top;spacingLeft=4;spacingRight=4;overflow=hidden;rotatable=0;points=[[0,0.5],[1,0.5]];portConstraint=eastwest;whiteSpace=wrap;html=1;" vertex="1" parent="F1agTI3qjRmrtM2KF93L-81">
          <mxGeometry y="76.20689655172414" width="440" height="113.79" as="geometry" />
        </mxCell>
        <mxCell id="F1agTI3qjRmrtM2KF93L-85" value="EntrarBD" style="swimlane;fontStyle=1;align=center;verticalAlign=top;childLayout=stackLayout;horizontal=1;startSize=26;horizontalStack=0;resizeParent=1;resizeParentMax=0;resizeLast=0;collapsible=1;marginBottom=0;whiteSpace=wrap;html=1;swimlaneFillColor=#F0F0F0;gradientColor=none;" vertex="1" parent="1">
          <mxGeometry x="65.10999999999981" y="1240" width="380" height="109.99689655172415" as="geometry" />
        </mxCell>
        <mxCell id="F1agTI3qjRmrtM2KF93L-87" value="" style="line;strokeWidth=1;fillColor=none;align=left;verticalAlign=middle;spacingTop=-1;spacingLeft=3;spacingRight=3;rotatable=0;labelPosition=right;points=[];portConstraint=eastwest;strokeColor=inherit;" vertex="1" parent="F1agTI3qjRmrtM2KF93L-85">
          <mxGeometry y="26" width="380" height="26.206896551724142" as="geometry" />
        </mxCell>
        <mxCell id="F1agTI3qjRmrtM2KF93L-88" value="+ consultarStatusParticipacion(idParticipante:int, idTorneo:int): Bool&lt;br&gt;+ entrarTorneo(idTorneo:int, idParticipante:int)&lt;br&gt;+ salirTorneo(idTorneo:int, idParticipante: int)" style="text;strokeColor=none;fillColor=none;align=left;verticalAlign=top;spacingLeft=4;spacingRight=4;overflow=hidden;rotatable=0;points=[[0,0.5],[1,0.5]];portConstraint=eastwest;whiteSpace=wrap;html=1;" vertex="1" parent="F1agTI3qjRmrtM2KF93L-85">
          <mxGeometry y="52.20689655172414" width="380" height="57.79" as="geometry" />
        </mxCell>
        <mxCell id="dtGOB_lFWEOF5k4lJtmr-3" value="CRUDAdministradores" style="swimlane;fontStyle=1;align=center;verticalAlign=top;childLayout=stackLayout;horizontal=1;startSize=26;horizontalStack=0;resizeParent=1;resizeParentMax=0;resizeLast=0;collapsible=1;marginBottom=0;whiteSpace=wrap;html=1;swimlaneFillColor=#F0F0F0;gradientColor=none;" vertex="1" parent="1">
          <mxGeometry x="-114.89" y="140" width="600" height="179.99689655172415" as="geometry" />
        </mxCell>
        <mxCell id="dtGOB_lFWEOF5k4lJtmr-4" value="- administrador: Administrador&lt;br&gt;- nuevoAdministrador: Administrador" style="text;strokeColor=none;fillColor=none;align=left;verticalAlign=top;spacingLeft=4;spacingRight=4;overflow=hidden;rotatable=0;points=[[0,0.5],[1,0.5]];portConstraint=eastwest;whiteSpace=wrap;html=1;" vertex="1" parent="dtGOB_lFWEOF5k4lJtmr-3">
          <mxGeometry y="26" width="600" height="44" as="geometry" />
        </mxCell>
        <mxCell id="dtGOB_lFWEOF5k4lJtmr-5" value="" style="line;strokeWidth=1;fillColor=none;align=left;verticalAlign=middle;spacingTop=-1;spacingLeft=3;spacingRight=3;rotatable=0;labelPosition=right;points=[];portConstraint=eastwest;strokeColor=inherit;" vertex="1" parent="dtGOB_lFWEOF5k4lJtmr-3">
          <mxGeometry y="70" width="600" height="26.206896551724142" as="geometry" />
        </mxCell>
        <mxCell id="dtGOB_lFWEOF5k4lJtmr-6" value="- generarPassword(): String&lt;br&gt;+ registrarAdministrador(foto:Blob, nombre:String, correo:String, username:String): Bool&lt;br&gt;+ eliminarAdministrador( idAdministrador: int ) : Bool&lt;br&gt;+ obtenerAdministradores(): List&amp;lt;Administrador&amp;gt;&lt;br&gt;+ editarAdministradores( idAdministrador : int, nombreAdministrador : String, correoAdministrador : String )" style="text;strokeColor=none;fillColor=none;align=left;verticalAlign=top;spacingLeft=4;spacingRight=4;overflow=hidden;rotatable=0;points=[[0,0.5],[1,0.5]];portConstraint=eastwest;whiteSpace=wrap;html=1;" vertex="1" parent="dtGOB_lFWEOF5k4lJtmr-3">
          <mxGeometry y="96.20689655172414" width="600" height="83.79" as="geometry" />
        </mxCell>
        <mxCell id="dtGOB_lFWEOF5k4lJtmr-11" value="ManejoDeSesionesUsuario" style="swimlane;fontStyle=1;align=center;verticalAlign=top;childLayout=stackLayout;horizontal=1;startSize=26;horizontalStack=0;resizeParent=1;resizeParentMax=0;resizeLast=0;collapsible=1;marginBottom=0;whiteSpace=wrap;html=1;swimlaneFillColor=#F0F0F0;gradientColor=none;" vertex="1" parent="1">
          <mxGeometry x="565.11" y="550" width="280" height="139.99689655172415" as="geometry" />
        </mxCell>
        <mxCell id="dtGOB_lFWEOF5k4lJtmr-12" value="- usuarioActivo: Usuario" style="text;strokeColor=none;fillColor=none;align=left;verticalAlign=top;spacingLeft=4;spacingRight=4;overflow=hidden;rotatable=0;points=[[0,0.5],[1,0.5]];portConstraint=eastwest;whiteSpace=wrap;html=1;" vertex="1" parent="dtGOB_lFWEOF5k4lJtmr-11">
          <mxGeometry y="26" width="280" height="24" as="geometry" />
        </mxCell>
        <mxCell id="dtGOB_lFWEOF5k4lJtmr-13" value="" style="line;strokeWidth=1;fillColor=none;align=left;verticalAlign=middle;spacingTop=-1;spacingLeft=3;spacingRight=3;rotatable=0;labelPosition=right;points=[];portConstraint=eastwest;strokeColor=inherit;" vertex="1" parent="dtGOB_lFWEOF5k4lJtmr-11">
          <mxGeometry y="50" width="280" height="26.206896551724142" as="geometry" />
        </mxCell>
        <mxCell id="dtGOB_lFWEOF5k4lJtmr-14" value="+ cerrarSesion()&lt;br&gt;+ iniciarSesion(correo: String, password: String)&lt;br&gt;+ redirigir(ruta: String)" style="text;strokeColor=none;fillColor=none;align=left;verticalAlign=top;spacingLeft=4;spacingRight=4;overflow=hidden;rotatable=0;points=[[0,0.5],[1,0.5]];portConstraint=eastwest;whiteSpace=wrap;html=1;" vertex="1" parent="dtGOB_lFWEOF5k4lJtmr-11">
          <mxGeometry y="76.20689655172414" width="280" height="63.79" as="geometry" />
        </mxCell>
        <mxCell id="dtGOB_lFWEOF5k4lJtmr-15" value="CRUDTorneos" style="swimlane;fontStyle=1;align=center;verticalAlign=top;childLayout=stackLayout;horizontal=1;startSize=26;horizontalStack=0;resizeParent=1;resizeParentMax=0;resizeLast=0;collapsible=1;marginBottom=0;whiteSpace=wrap;html=1;swimlaneFillColor=#F0F0F0;gradientColor=none;" vertex="1" parent="1">
          <mxGeometry x="-114.89" y="330" width="600" height="209.99689655172415" as="geometry" />
        </mxCell>
        <mxCell id="dtGOB_lFWEOF5k4lJtmr-16" value="- torneo: Torneo&lt;br style=&quot;border-color: var(--border-color);&quot;&gt;- nuevoTorneo: Torneo" style="text;strokeColor=none;fillColor=none;align=left;verticalAlign=top;spacingLeft=4;spacingRight=4;overflow=hidden;rotatable=0;points=[[0,0.5],[1,0.5]];portConstraint=eastwest;whiteSpace=wrap;html=1;" vertex="1" parent="dtGOB_lFWEOF5k4lJtmr-15">
          <mxGeometry y="26" width="600" height="44" as="geometry" />
        </mxCell>
        <mxCell id="dtGOB_lFWEOF5k4lJtmr-17" value="" style="line;strokeWidth=1;fillColor=none;align=left;verticalAlign=middle;spacingTop=-1;spacingLeft=3;spacingRight=3;rotatable=0;labelPosition=right;points=[];portConstraint=eastwest;strokeColor=inherit;" vertex="1" parent="dtGOB_lFWEOF5k4lJtmr-15">
          <mxGeometry y="70" width="600" height="26.206896551724142" as="geometry" />
        </mxCell>
        <mxCell id="dtGOB_lFWEOF5k4lJtmr-18" value="+ crearTorneo(torneo: Torneo): Bool&lt;br&gt;+ obtenerInformacion(idTorneo: int): Torneo&lt;br&gt;+ buscarTorneo(idTorneo: int)&lt;br&gt;+ buscarTorneos(entrada: String)&lt;br&gt;+ editarTorneo(idTorneo:int, foto:Blob, nombreTorneo:String, nombreVideojuego:String&lt;br style=&quot;border-color: var(--border-color);&quot;&gt;&lt;span style=&quot;border-color: var(--border-color);&quot;&gt;&lt;/span&gt;&lt;span style=&quot;border-color: var(--border-color);&quot;&gt;&lt;span style=&quot;border-color: var(--border-color);&quot;&gt;&amp;nbsp;&amp;nbsp;&amp;nbsp;&amp;nbsp;&lt;/span&gt;&lt;/span&gt;&amp;nbsp; &amp;nbsp; &amp;nbsp; &amp;nbsp; &amp;nbsp; &amp;nbsp; &amp;nbsp; &amp;nbsp; &amp;nbsp;consola:String, reglas:String, numeroParticipantes:int, fechaInicio:date, fechaFin:date): Bool&lt;br&gt;+ eliminarTorneo( idTorneo : int ) : Bool" style="text;strokeColor=none;fillColor=none;align=left;verticalAlign=top;spacingLeft=4;spacingRight=4;overflow=hidden;rotatable=0;points=[[0,0.5],[1,0.5]];portConstraint=eastwest;whiteSpace=wrap;html=1;" vertex="1" parent="dtGOB_lFWEOF5k4lJtmr-15">
          <mxGeometry y="96.20689655172414" width="600" height="113.79" as="geometry" />
        </mxCell>
        <mxCell id="dtGOB_lFWEOF5k4lJtmr-19" value="CRUDParticipantes" style="swimlane;fontStyle=1;align=center;verticalAlign=top;childLayout=stackLayout;horizontal=1;startSize=26;horizontalStack=0;resizeParent=1;resizeParentMax=0;resizeLast=0;collapsible=1;marginBottom=0;whiteSpace=wrap;html=1;swimlaneFillColor=#F0F0F0;gradientColor=none;" vertex="1" parent="1">
          <mxGeometry x="-114.89" y="550" width="410" height="179.99689655172415" as="geometry" />
        </mxCell>
        <mxCell id="dtGOB_lFWEOF5k4lJtmr-20" value="- participante: Participante&lt;br&gt;- nuevoParticipante: Participante" style="text;strokeColor=none;fillColor=none;align=left;verticalAlign=top;spacingLeft=4;spacingRight=4;overflow=hidden;rotatable=0;points=[[0,0.5],[1,0.5]];portConstraint=eastwest;whiteSpace=wrap;html=1;" vertex="1" parent="dtGOB_lFWEOF5k4lJtmr-19">
          <mxGeometry y="26" width="410" height="34" as="geometry" />
        </mxCell>
        <mxCell id="dtGOB_lFWEOF5k4lJtmr-21" value="" style="line;strokeWidth=1;fillColor=none;align=left;verticalAlign=middle;spacingTop=-1;spacingLeft=3;spacingRight=3;rotatable=0;labelPosition=right;points=[];portConstraint=eastwest;strokeColor=inherit;" vertex="1" parent="dtGOB_lFWEOF5k4lJtmr-19">
          <mxGeometry y="60" width="410" height="26.206896551724142" as="geometry" />
        </mxCell>
        <mxCell id="dtGOB_lFWEOF5k4lJtmr-22" value="+ existeCorreo(correo: String)&lt;br&gt;+ crearParticipante(participante: Participante): String&lt;br&gt;+ obtenerParticipanteDeBusqueda(busqueda: String): Participante&lt;br&gt;+ obtenerInformacion(idParticipante: int): Participante&lt;br&gt;+ modificarDatosParticipante(idParticipante: int, participante: Participante)" style="text;strokeColor=none;fillColor=none;align=left;verticalAlign=top;spacingLeft=4;spacingRight=4;overflow=hidden;rotatable=0;points=[[0,0.5],[1,0.5]];portConstraint=eastwest;whiteSpace=wrap;html=1;" vertex="1" parent="dtGOB_lFWEOF5k4lJtmr-19">
          <mxGeometry y="86.20689655172414" width="410" height="93.79" as="geometry" />
        </mxCell>
        <mxCell id="dtGOB_lFWEOF5k4lJtmr-23" value="EntrarTorneo" style="swimlane;fontStyle=1;align=center;verticalAlign=top;childLayout=stackLayout;horizontal=1;startSize=26;horizontalStack=0;resizeParent=1;resizeParentMax=0;resizeLast=0;collapsible=1;marginBottom=0;whiteSpace=wrap;html=1;swimlaneFillColor=#F0F0F0;gradientColor=none;" vertex="1" parent="1">
          <mxGeometry x="505.11" y="300" width="340" height="109.99689655172415" as="geometry" />
        </mxCell>
        <mxCell id="dtGOB_lFWEOF5k4lJtmr-25" value="" style="line;strokeWidth=1;fillColor=none;align=left;verticalAlign=middle;spacingTop=-1;spacingLeft=3;spacingRight=3;rotatable=0;labelPosition=right;points=[];portConstraint=eastwest;strokeColor=inherit;" vertex="1" parent="dtGOB_lFWEOF5k4lJtmr-23">
          <mxGeometry y="26" width="340" height="26.206896551724142" as="geometry" />
        </mxCell>
        <mxCell id="dtGOB_lFWEOF5k4lJtmr-26" value="+ entrarTorneo(idTorneo: int, idParticipante: int)&lt;br&gt;+ salirTorneo(idTorneo: int, idParticipante:int): Bool&lt;br&gt;+ statusParticipacion(idParticipante: int, idTorneo: int): Bool" style="text;strokeColor=none;fillColor=none;align=left;verticalAlign=top;spacingLeft=4;spacingRight=4;overflow=hidden;rotatable=0;points=[[0,0.5],[1,0.5]];portConstraint=eastwest;whiteSpace=wrap;html=1;" vertex="1" parent="dtGOB_lFWEOF5k4lJtmr-23">
          <mxGeometry y="52.20689655172414" width="340" height="57.79" as="geometry" />
        </mxCell>
        <mxCell id="dtGOB_lFWEOF5k4lJtmr-27" value="PerfilUsuario" style="swimlane;fontStyle=1;align=center;verticalAlign=top;childLayout=stackLayout;horizontal=1;startSize=26;horizontalStack=0;resizeParent=1;resizeParentMax=0;resizeLast=0;collapsible=1;marginBottom=0;whiteSpace=wrap;html=1;swimlaneFillColor=#F0F0F0;gradientColor=none;" vertex="1" parent="1">
          <mxGeometry x="320" y="550" width="210" height="149.99689655172415" as="geometry" />
        </mxCell>
        <mxCell id="dtGOB_lFWEOF5k4lJtmr-29" value="" style="line;strokeWidth=1;fillColor=none;align=left;verticalAlign=middle;spacingTop=-1;spacingLeft=3;spacingRight=3;rotatable=0;labelPosition=right;points=[];portConstraint=eastwest;strokeColor=inherit;" vertex="1" parent="dtGOB_lFWEOF5k4lJtmr-27">
          <mxGeometry y="26" width="210" height="26.206896551724142" as="geometry" />
        </mxCell>
        <mxCell id="dtGOB_lFWEOF5k4lJtmr-30" value="+ eliminarPerfil(idParticipante:int)&lt;br&gt;+ verPerfil()&lt;br&gt;+ editarPerfil()&lt;br&gt;+ confirmacion()&lt;br&gt;+ redirigirInicioSesion()" style="text;strokeColor=none;fillColor=none;align=left;verticalAlign=top;spacingLeft=4;spacingRight=4;overflow=hidden;rotatable=0;points=[[0,0.5],[1,0.5]];portConstraint=eastwest;whiteSpace=wrap;html=1;" vertex="1" parent="dtGOB_lFWEOF5k4lJtmr-27">
          <mxGeometry y="52.20689655172414" width="210" height="97.79" as="geometry" />
        </mxCell>
        <mxCell id="dtGOB_lFWEOF5k4lJtmr-31" value="FormularioCreacionTorneoIH" style="swimlane;fontStyle=1;align=center;verticalAlign=top;childLayout=stackLayout;horizontal=1;startSize=26;horizontalStack=0;resizeParent=1;resizeParentMax=0;resizeLast=0;collapsible=1;marginBottom=0;whiteSpace=wrap;html=1;swimlaneFillColor=#F0F0F0;gradientColor=none;" vertex="1" parent="1">
          <mxGeometry x="-396.3618181818181" y="-270.00421593830333" width="626.36" height="239.99906302632746" as="geometry" />
        </mxCell>
        <mxCell id="dtGOB_lFWEOF5k4lJtmr-32" value="- foto: Blob&lt;br&gt;- nombreTorneo: String&lt;br&gt;- nombreVideojuego:String&lt;br&gt;- consola:String&lt;br&gt;- reglas:String&lt;br&gt;- numeroParticipantes:int&lt;br&gt;- fechaInicio: date&lt;br&gt;- fechaFin: date" style="text;strokeColor=none;fillColor=none;align=left;verticalAlign=top;spacingLeft=4;spacingRight=4;overflow=hidden;rotatable=0;points=[[0,0.5],[1,0.5]];portConstraint=eastwest;whiteSpace=wrap;html=1;" vertex="1" parent="dtGOB_lFWEOF5k4lJtmr-31">
          <mxGeometry y="26" width="626.36" height="124" as="geometry" />
        </mxCell>
        <mxCell id="dtGOB_lFWEOF5k4lJtmr-33" value="" style="line;strokeWidth=1;fillColor=none;align=left;verticalAlign=middle;spacingTop=-1;spacingLeft=3;spacingRight=3;rotatable=0;labelPosition=right;points=[];portConstraint=eastwest;strokeColor=inherit;" vertex="1" parent="dtGOB_lFWEOF5k4lJtmr-31">
          <mxGeometry y="150" width="626.36" height="28.969063026327454" as="geometry" />
        </mxCell>
        <mxCell id="dtGOB_lFWEOF5k4lJtmr-34" value="+ crearTorneo(formularioToreno: Torneo): Bool&lt;br&gt;+ validaCampos(): Bool&lt;br style=&quot;border-color: var(--border-color);&quot;&gt;+ mensajeErrorCampos(mensaje:String)" style="text;strokeColor=none;fillColor=none;align=left;verticalAlign=top;spacingLeft=4;spacingRight=4;overflow=hidden;rotatable=0;points=[[0,0.5],[1,0.5]];portConstraint=eastwest;whiteSpace=wrap;html=1;" vertex="1" parent="dtGOB_lFWEOF5k4lJtmr-31">
          <mxGeometry y="178.96906302632746" width="626.36" height="61.03" as="geometry" />
        </mxCell>
        <mxCell id="dtGOB_lFWEOF5k4lJtmr-36" value="CRUDParticipantes" style="swimlane;fontStyle=1;align=center;verticalAlign=top;childLayout=stackLayout;horizontal=1;startSize=26;horizontalStack=0;resizeParent=1;resizeParentMax=0;resizeLast=0;collapsible=1;marginBottom=0;whiteSpace=wrap;html=1;swimlaneFillColor=#F0F0F0;gradientColor=none;" vertex="1" parent="1">
          <mxGeometry x="855.8498322884012" y="-126.19021501647308" width="285.1050681818182" height="96.18017136741148" as="geometry" />
        </mxCell>
        <mxCell id="dtGOB_lFWEOF5k4lJtmr-37" value="" style="line;strokeWidth=1;fillColor=none;align=left;verticalAlign=middle;spacingTop=-1;spacingLeft=3;spacingRight=3;rotatable=0;labelPosition=right;points=[];portConstraint=eastwest;strokeColor=inherit;" vertex="1" parent="dtGOB_lFWEOF5k4lJtmr-36">
          <mxGeometry y="26" width="285.1050681818182" height="31.264686713345252" as="geometry" />
        </mxCell>
        <mxCell id="dtGOB_lFWEOF5k4lJtmr-38" value="+ verParticipantes()" style="text;strokeColor=none;fillColor=none;align=left;verticalAlign=top;spacingLeft=4;spacingRight=4;overflow=hidden;rotatable=0;points=[[0,0.5],[1,0.5]];portConstraint=eastwest;whiteSpace=wrap;html=1;" vertex="1" parent="dtGOB_lFWEOF5k4lJtmr-36">
          <mxGeometry y="57.264686713345256" width="285.1050681818182" height="38.915484654066226" as="geometry" />
        </mxCell>
      </root>
    </mxGraphModel>
  </diagram>
</mxfile>
